<svg width="24" height="24" viewBox="0 0 24 24" fill="none" xmlns="http://www.w3.org/2000/svg">
<path d="M11.5892 16.7628L8.45028 19.853C7.87989 20.4145 7.12148 20.7236 6.31558 20.7236C4.65063 20.7236 3.2965 19.3905 3.2965 17.7514C3.2965 16.9574 3.61049 16.2114 4.18088 15.6498L9.81137 10.1067C10.9541 8.98364 12.9444 8.9849 14.082 10.108L15 9.20675C13.3699 7.59816 10.5261 7.59816 8.89469 9.20426L3.26424 14.7473C2.44885 15.5501 2 16.6165 2 17.7514C2 20.0941 3.93592 22 6.31562 22C7.46845 22 8.5516 21.5581 9.36699 20.7554L13.342 16.8421C13.1605 16.8594 12.9829 16.8944 12.7982 16.8944C12.383 16.8944 11.979 16.8473 11.5892 16.7628Z" fill="#82B284"/>
<path d="M17.6853 2C16.5327 2 15.4497 2.44061 14.6345 3.24104L10.6603 7.14301C10.8417 7.12583 11.0193 7.09088 11.2039 7.09088C11.6173 7.09088 12.0151 7.14781 12.4032 7.23147L15.551 4.14085C16.1213 3.58093 16.8789 3.2727 17.6853 3.2727C19.3499 3.2727 20.7038 4.60197 20.7038 6.23636C20.7038 7.0281 20.3898 7.77195 19.8195 8.33187L14.1901 13.8591C13.0471 14.9795 11.0571 14.9777 9.91778 13.856L9 14.7546C9.81523 15.5575 10.9007 16 12.0559 16C13.2085 16 14.2914 15.5594 15.1066 14.759L20.736 9.23183C21.5512 8.43141 22 7.3681 22 6.23647C22 3.90039 20.0645 2 17.6853 2V2Z" fill="#82B284"/>
</svg>
