<svg width="20" height="20" viewBox="0 0 20 20" fill="none" xmlns="http://www.w3.org/2000/svg">
<path d="M17.919 16.4929L17.0258 5.23836C16.9702 4.51328 16.357 3.94527 15.6298 3.94527H13.8656V3.86598C13.8656 1.73426 12.1313 0 9.99962 0C7.8679 0 6.13364 1.73426 6.13364 3.86598V3.94527H4.3695C3.64228 3.94527 3.02904 4.51324 2.97357 5.23684L2.08013 16.4944C2.01099 17.3958 2.32368 18.2932 2.93798 18.9564C3.55228 19.6196 4.4231 20 5.32712 20H14.6721C15.5761 20 16.4469 19.6196 17.0613 18.9564C17.6756 18.2931 17.9882 17.3958 17.919 16.4929ZM7.30513 3.86598C7.30513 2.38023 8.51392 1.17148 9.99962 1.17148C11.4853 1.17148 12.6941 2.38027 12.6941 3.86598V3.94527H7.30513V3.86598ZM16.2018 18.1604C15.8026 18.5912 15.2594 18.8285 14.6721 18.8285H5.32716C4.73982 18.8285 4.19661 18.5912 3.79747 18.1604C3.39837 17.7295 3.20329 17.1696 3.24814 16.5855L4.1415 5.32793C4.15056 5.20949 4.25071 5.11676 4.3695 5.11676H6.13364V6.55953C6.13364 6.88301 6.39591 7.14527 6.71939 7.14527C7.04286 7.14527 7.30513 6.88301 7.30513 6.55953V5.11676H12.6941V6.55953C12.6941 6.88301 12.9564 7.14527 13.2799 7.14527C13.6033 7.14527 13.8656 6.88301 13.8656 6.55953V5.11676H15.6298C15.7485 5.11676 15.8487 5.20953 15.8579 5.32949L16.7511 16.584C16.796 17.1696 16.6009 17.7294 16.2018 18.1604Z" fill="white"/>
<path d="M12.6392 9.93301C12.4105 9.70426 12.0396 9.70426 11.8109 9.93301L9.19544 12.5485L8.18974 11.5428C7.96103 11.314 7.59013 11.314 7.36138 11.5428C7.13263 11.7715 7.13263 12.1424 7.36138 12.3711L8.78126 13.791C8.89564 13.9054 9.04556 13.9626 9.19541 13.9626C9.34525 13.9626 9.49521 13.9054 9.60955 13.791L12.6392 10.7614C12.8679 10.5326 12.8679 10.1618 12.6392 9.93301Z" fill="white"/>
</svg>
