<svg width="20" height="20" viewBox="0 0 20 20" fill="none" xmlns="http://www.w3.org/2000/svg">
<g clip-path="url(#clip0)">
<path d="M5.34686 14.6548C4.66151 13.9694 3.54632 13.9693 2.86097 14.6548C2.17558 15.3401 2.17558 16.4553 2.86097 17.1406C3.54628 17.826 4.66147 17.826 5.34686 17.1406C6.03225 16.4553 6.03225 15.3401 5.34686 14.6548ZM4.51823 16.3121C4.28925 16.5411 3.91858 16.5411 3.68956 16.3121C3.46054 16.083 3.46054 15.7125 3.68956 15.4834C3.91803 15.255 4.28971 15.255 4.51823 15.4834C4.74667 15.7119 4.74667 16.0836 4.51823 16.3121Z" fill="white"/>
<path d="M18.5457 13.456C18.542 13.4533 18.5383 13.4506 18.5346 13.4479L14.392 10.4908L13.5976 9.69655C13.4565 9.55542 13.297 9.44386 13.127 9.36085L13.5467 8.94112C14.0749 8.41296 14.8595 8.14312 15.7547 8.18073C16.8931 8.22854 18.0066 7.79569 18.8098 6.99249C20.0282 5.77413 20.3462 3.90268 19.6011 2.33561C19.4266 1.96874 18.941 1.88753 18.6562 2.17436L17.323 3.5169H16.4835V2.67913L17.8273 1.346C18.1154 1.06022 18.0321 0.574793 17.6662 0.400848C16.0992 -0.344269 14.2277 -0.0262616 13.0095 1.1921C12.2063 1.9953 11.7732 3.10878 11.8212 4.24722C11.859 5.14296 11.589 5.92706 11.0608 6.45522L10.0013 7.51475L6.90045 4.41393L6.11557 2.05929C6.06643 1.91186 5.96072 1.78999 5.82174 1.7205L2.50721 0.0631916C2.28166 -0.0495818 2.0092 -0.00540212 1.83088 0.172957L0.173616 1.83022C-0.00470459 2.00854 -0.0489233 2.281 0.0638501 2.50655L1.72108 5.82108C1.79053 5.96011 1.9124 6.06577 2.05987 6.11491L4.41451 6.89979L7.51537 10.0006L6.46139 11.0546C5.91076 11.6052 5.17475 11.8846 4.44104 11.8212C2.94037 11.6915 1.53573 12.3674 0.683772 13.6296C-0.23529 14.9912 -0.229665 16.8471 0.711545 18.2073C2.2033 20.363 5.21174 20.5906 7.00416 18.7981C7.80736 17.9949 8.24041 16.8814 8.1924 15.743C8.15463 14.8472 8.42467 14.0631 8.9528 13.535L9.11877 13.369C9.20178 13.5391 9.31334 13.6985 9.45448 13.8396L10.2624 14.6476L13.4646 18.5555C14.7933 20.3139 17.3732 20.4961 18.935 18.9343C20.499 17.3702 20.3136 14.7819 18.5457 13.456ZM5.14537 5.97339C5.08108 5.90905 5.00264 5.86061 4.91635 5.83183L2.66073 5.07995L1.30084 2.36026L2.36088 1.30022L5.08061 2.66011L5.83248 4.91573C5.86123 5.00202 5.90975 5.08046 5.97405 5.14475L9.17268 8.34339L8.34405 9.17206L5.14537 5.97339ZM8.1242 12.7064C7.36143 13.4692 6.96983 14.5651 7.02162 15.7925C7.05635 16.616 6.75588 17.3891 6.17557 17.9695C4.92104 19.224 2.77065 19.1235 1.67522 17.5405C1.01432 16.5854 1.00604 15.2468 1.6551 14.2852C2.25541 13.3957 3.25166 12.8945 4.33994 12.9887C5.4192 13.0822 6.49405 12.6791 7.28994 11.8832C7.55897 11.6142 11.6214 7.55171 11.8893 7.28382C12.6521 6.52101 13.0437 5.42503 12.9919 4.19776C12.9572 3.37421 13.2577 2.60108 13.838 2.02073C14.4931 1.36557 15.4146 1.07628 16.3083 1.20218L15.4848 2.01909C15.3739 2.12909 15.3115 2.27886 15.3115 2.43507V4.10288C15.3115 4.42647 15.5739 4.68882 15.8975 4.68882H17.5667C17.7228 4.68882 17.8725 4.62651 17.9825 4.51573L18.7996 3.69296C18.9257 4.58706 18.6364 5.50858 17.9811 6.16386C17.4008 6.74417 16.6276 7.04483 15.804 7.00991C14.5768 6.95831 13.4808 7.34972 12.718 8.11249L8.1242 12.7064ZM10.2831 13.0111C10.087 12.815 10.0597 12.5135 10.2003 12.2875L12.0453 10.4425C12.276 10.299 12.5758 10.3321 12.769 10.5252L13.1833 10.9395L10.6974 13.4254L10.2831 13.0111ZM18.1064 18.1058C17.0466 19.1655 15.2927 19.04 14.3942 17.8419C14.3892 17.8352 14.384 17.8286 14.3787 17.8221L11.4871 14.2932L14.0755 11.7047L17.8479 14.3975C19.0428 15.2986 19.163 17.0491 18.1064 18.1058Z" fill="white"/>
</g>
<defs>
<clipPath id="clip0">
<rect width="20" height="20" fill="white"/>
</clipPath>
</defs>
</svg>
