<svg width="20" height="20" viewBox="0 0 20 20" fill="none" xmlns="http://www.w3.org/2000/svg">
<path d="M18.5721 10.046C18.4789 9.79105 18.1967 9.66028 17.9432 9.75382L13.3488 11.4367L17.0626 7.72578C17.1546 7.6343 17.2059 7.50928 17.2059 7.37893C17.2059 7.24912 17.1545 7.12428 17.0626 7.03201L14.1898 4.15758C13.9982 3.96602 13.6879 3.96602 13.4963 4.15758L9.85391 7.79747L11.8968 2.95155C11.9472 2.83168 11.9479 2.6966 11.8993 2.57624C11.8502 2.45588 11.7553 2.3598 11.6353 2.30949L7.89102 0.730688C7.64116 0.624192 7.35352 0.742857 7.24847 0.991995L5.23097 5.77791V0.682314C5.23097 0.411562 5.01132 0.19191 4.74057 0.19191H0.490404C0.219653 0.19191 0 0.411562 0 0.682314V19.3177C0 19.5884 0.219653 19.8081 0.490404 19.8081H4.74057C4.80045 19.8081 4.8573 19.7956 4.91027 19.7762C4.96331 19.7953 5.01853 19.8081 5.07598 19.8081C5.13235 19.8081 5.18914 19.7985 5.24472 19.778L19.6781 14.4903C19.9322 14.397 20.0631 14.1154 19.9699 13.8613L18.5721 10.046ZM2.89901 18.8273H0.980808V18.0183V17.4863V17.1223V15.8603V1.17272H4.25017V8.10442V9.3667V10.6293V13.3978V14.0906V14.77V14.784V17.8222V18.3324V18.4886V18.516V18.8273H4.16153H3.86765H2.89901V18.8273ZM10.8026 3.02257L8.01489 9.63539L7.50978 10.8333L7.00454 12.0312L6.14216 14.0768L5.62124 15.312L5.23097 16.2389V15.4551V14.4108V13.8039V13.1104V12.4176V8.30295L7.96186 1.82538L10.8026 3.02257ZM6.88037 14.8507L7.40128 13.6155L8.84392 10.1932L13.8425 5.19796L16.0222 7.37863L11.1584 12.2394L9.50839 13.8881L5.6687 17.7251L6.88037 14.8507ZM6.51159 18.2695L11.6985 13.0861L17.8199 10.8435L18.8802 13.7381L6.51159 18.2695Z" fill="white"/>
<path d="M2.61546 16.8111C2.59391 16.8111 2.57363 16.8158 2.55274 16.8172C2.36899 16.8338 2.20649 16.9184 2.09007 17.0483C2.0133 17.1339 1.95663 17.2379 1.92854 17.3535C1.91576 17.4072 1.90698 17.4621 1.90698 17.5195C1.90698 17.6753 1.95869 17.8177 2.04363 17.9346C2.17241 18.1114 2.37965 18.2276 2.61546 18.2276C2.64973 18.2276 2.68249 18.2226 2.71554 18.2174C2.85697 18.1973 2.98448 18.136 3.08589 18.045C3.13487 18.0009 3.1781 17.9511 3.21339 17.8949C3.27151 17.8029 3.30693 17.6963 3.31698 17.582C3.31892 17.5609 3.32322 17.5405 3.32322 17.5191C3.32395 17.1281 3.00676 16.8111 2.61546 16.8111Z" fill="white"/>
</svg>
