<svg width="20" height="20" viewBox="0 0 20 20" fill="none" xmlns="http://www.w3.org/2000/svg">
<g clip-path="url(#clip0)">
<path d="M19.6642 8.94073L17.9746 7.40124V2.29643C17.9746 1.97163 17.7113 1.70827 17.3865 1.70827H13.3195C12.9947 1.70827 12.7313 1.97159 12.7313 2.29643V2.62354L10.6909 0.764286C10.297 0.405341 9.70305 0.40538 9.30933 0.764247L0.335975 8.94077C0.0205067 9.22827 -0.0837511 9.67124 0.0703896 10.0692C0.224569 10.4673 0.59996 10.7244 1.0268 10.7244H2.45996V18.9166C2.45996 19.2414 2.72328 19.5048 3.04812 19.5048H7.9666C8.29141 19.5048 8.55476 19.2415 8.55476 18.9166V13.9426H11.4454V18.9167C11.4454 19.2415 11.7087 19.5048 12.0336 19.5048H16.9519C17.2767 19.5048 17.54 19.2415 17.54 18.9167V10.7244H18.9735C19.4003 10.7244 19.7757 10.4673 19.9299 10.0693C20.084 9.67124 19.9798 9.22827 19.6642 8.94073ZM16.9519 9.54811C16.6271 9.54811 16.3637 9.81143 16.3637 10.1363V18.3285H12.6218V13.3544C12.6218 13.0296 12.3584 12.7662 12.0336 12.7662H7.9666C7.6418 12.7662 7.37844 13.0296 7.37844 13.3544V18.3285H3.63625V10.1363C3.63625 9.81147 3.37293 9.54811 3.04808 9.54811H1.41594L10.0002 1.72624L12.9234 4.38995C13.0956 4.54682 13.3442 4.58725 13.5572 4.49323C13.7702 4.39909 13.9077 4.18807 13.9077 3.95518V2.8846H16.7984V7.661C16.7984 7.82651 16.8681 7.98429 16.9904 8.09577L18.5843 9.54811H16.9519Z" fill="white"/>
</g>
<defs>
<clipPath id="clip0">
<rect width="20" height="20" fill="white"/>
</clipPath>
</defs>
</svg>
