<svg width="20" height="20" viewBox="0 0 20 20" fill="none" xmlns="http://www.w3.org/2000/svg">
<path d="M10 10.625C12.4162 10.625 14.375 8.66625 14.375 6.25C14.375 3.83375 12.4162 1.875 10 1.875C7.58375 1.875 5.625 3.83375 5.625 6.25C5.625 8.66625 7.58375 10.625 10 10.625Z" stroke="white" stroke-width="1.5" stroke-miterlimit="10"/>
<path d="M10 18.1181C10 18.1181 10.9792 18.2004 12.3229 17.7948C15.2554 16.9094 17.1027 12.4594 14.2706 11.2919V11.2919L13.2407 10.7897C12.9102 10.6286 12.5321 10.3559 12.6245 10V10" stroke="white" stroke-width="1.5" stroke-miterlimit="10"/>
<path d="M10 18.1181C10 18.1181 9.02077 18.2004 7.67712 17.7948C4.74457 16.9094 2.89729 12.4594 5.72935 11.2919V11.2919L6.75931 10.7897C7.0898 10.6286 7.4679 10.3559 7.37549 10V10" stroke="white" stroke-width="1.5" stroke-miterlimit="10"/>
</svg>
