<svg width="20" height="20" viewBox="0 0 20 20" fill="none" xmlns="http://www.w3.org/2000/svg">
<path d="M18.8281 14.2023V12.3438C18.8281 10.4145 18.2061 8.58082 17.0292 7.0409C15.9845 5.67398 14.5402 4.62566 12.9275 4.05484C12.8826 3.12527 12.1124 2.38281 11.1719 2.38281H8.82812C7.88762 2.38281 7.11738 3.12527 7.0725 4.05484C5.45984 4.62566 4.01547 5.67398 2.97082 7.0409C1.79395 8.58082 1.17188 10.4145 1.17188 12.3438V14.2023C0.489883 14.4442 0 15.0955 0 15.8594C0 16.8286 0.788555 17.6172 1.75781 17.6172H18.2422C19.2114 17.6172 20 16.8286 20 15.8594C20 15.0955 19.5101 14.4442 18.8281 14.2023ZM2.34375 12.3438C2.34375 10.2308 3.24633 8.25281 4.72656 6.8416V8.82812C4.72656 9.15172 4.98891 9.41406 5.3125 9.41406C5.63609 9.41406 5.89844 9.15172 5.89844 8.82812V5.92254C6.26766 5.68684 6.65926 5.48121 7.07031 5.31008V10C7.07031 10.3236 7.33266 10.5859 7.65625 10.5859C7.97984 10.5859 8.24219 10.3236 8.24219 10V4.48953C8.24223 4.48793 8.24219 4.48633 8.24219 4.48473V4.14062C8.24219 3.81754 8.50504 3.55469 8.82812 3.55469H11.1719C11.495 3.55469 11.7578 3.81754 11.7578 4.14062V4.48457C11.7578 4.48625 11.7578 4.48789 11.7578 4.48957V10C11.7578 10.3236 12.0202 10.5859 12.3438 10.5859C12.6673 10.5859 12.9297 10.3236 12.9297 10V5.31008C13.3407 5.48125 13.7323 5.68688 14.1016 5.92254V8.82812C14.1016 9.15172 14.3639 9.41406 14.6875 9.41406C15.0111 9.41406 15.2734 9.15172 15.2734 8.82812V6.8416C16.7537 8.25281 17.6562 10.2308 17.6562 12.3438V14.1016H2.34375V12.3438ZM18.2422 16.4453H1.75781C1.43473 16.4453 1.17188 16.1825 1.17188 15.8594C1.17188 15.5363 1.43473 15.2734 1.75781 15.2734H18.2422C18.5653 15.2734 18.8281 15.5363 18.8281 15.8594C18.8281 16.1825 18.5653 16.4453 18.2422 16.4453Z" fill="white"/>
</svg>
