<svg width="16" height="16" viewBox="0 0 16 16" fill="none" xmlns="http://www.w3.org/2000/svg">
<path d="M14 13.3333H15.3333V14.6667H0.666626V13.3333H1.99996V2.00001C1.99996 1.8232 2.0702 1.65363 2.19522 1.52861C2.32025 1.40358 2.48981 1.33334 2.66663 1.33334H13.3333C13.5101 1.33334 13.6797 1.40358 13.8047 1.52861C13.9297 1.65363 14 1.8232 14 2.00001V13.3333ZM12.6666 13.3333V2.66668H3.33329V13.3333H12.6666ZM5.33329 7.33334H7.33329V8.66668H5.33329V7.33334ZM5.33329 4.66668H7.33329V6.00001H5.33329V4.66668ZM5.33329 10H7.33329V11.3333H5.33329V10ZM8.66663 10H10.6666V11.3333H8.66663V10ZM8.66663 7.33334H10.6666V8.66668H8.66663V7.33334ZM8.66663 4.66668H10.6666V6.00001H8.66663V4.66668Z" fill="#82B284"/>
</svg>
