<svg width="20" height="20" viewBox="0 0 20 20" fill="none" xmlns="http://www.w3.org/2000/svg">
<path fill-rule="evenodd" clip-rule="evenodd" d="M15.6572 4.34504C14.1455 2.83415 12.1378 1.99998 9.99944 1.99998C7.86103 1.99998 5.85334 2.83416 4.34172 4.34504C1.42571 7.25962 1.21454 11.9162 3.81213 15.072C3.4535 15.8057 3.03117 16.2948 2.55187 16.5293C2.26029 16.6734 2.09604 16.9883 2.14298 17.3099C2.19324 17.6348 2.44127 17.8861 2.7664 17.9363C2.94404 17.9631 3.13508 17.9799 3.33283 17.9799C4.31489 17.9799 5.34723 17.6415 6.20862 17.0486C7.36832 17.6717 8.67213 18 9.99943 18C12.1378 18 14.1455 17.1692 15.6571 15.6583C17.1688 14.1474 18 12.1373 18 10.0034C18 7.86935 17.1688 5.85594 15.6571 4.34505L15.6572 4.34504Z" stroke="white" stroke-width="1.5" stroke-miterlimit="22.9256" stroke-linecap="round" stroke-linejoin="round"/>
<path d="M6.2738 9.99998H13.7266" stroke="white" stroke-miterlimit="22.9256" stroke-linecap="round"/>
<path d="M6.2738 7.81239H13.7266" stroke="white" stroke-miterlimit="22.9256" stroke-linecap="round"/>
<path d="M6.2738 12.1876H13.7266" stroke="white" stroke-miterlimit="22.9256" stroke-linecap="round"/>
</svg>
